<svg width="30" height="72" viewBox="0 0 30 72" fill="none" xmlns="http://www.w3.org/2000/svg">
<path d="M13.9 44.313V5.657L6.121 13.435L4 11.314L15.314 0L17.435 2.121L26.628 11.314L24.507 13.435L16.9 5.828V44.313H13.9Z" fill="#575757"/>
<path d="M3.06384 58.1255V59.9165H4.4447V60.894H3.06384V65.481C3.06384 65.7772 3.12537 66.0005 3.24841 66.1509C3.37146 66.2967 3.5811 66.3696 3.87732 66.3696C4.02315 66.3696 4.22367 66.3423 4.47888 66.2876V67.313C4.1462 67.4041 3.82263 67.4497 3.50818 67.4497C2.94307 67.4497 2.51697 67.2788 2.22986 66.937C1.94275 66.5952 1.79919 66.1099 1.79919 65.481V60.894H0.452515V59.9165H1.79919V58.1255H3.06384ZM5.45642 63.5464C5.45642 62.8218 5.5977 62.1701 5.88025 61.5913C6.16736 61.0125 6.56384 60.5659 7.0697 60.2515C7.58012 59.937 8.16117 59.7798 8.81287 59.7798C9.82003 59.7798 10.6335 60.1284 11.2533 60.8257C11.8776 61.5229 12.1898 62.4504 12.1898 63.6079V63.6968C12.1898 64.4168 12.0508 65.064 11.7728 65.6382C11.4994 66.2078 11.1052 66.6522 10.5902 66.9712C10.0798 67.2902 9.4919 67.4497 8.82654 67.4497C7.82393 67.4497 7.01046 67.1011 6.38611 66.4038C5.76632 65.7065 5.45642 64.7837 5.45642 63.6353V63.5464ZM6.72791 63.6968C6.72791 64.5171 6.91703 65.1756 7.29529 65.6724C7.6781 66.1691 8.18852 66.4175 8.82654 66.4175C9.46912 66.4175 9.97953 66.1668 10.3578 65.6655C10.736 65.1597 10.9252 64.4533 10.9252 63.5464C10.9252 62.7352 10.7315 62.0789 10.3441 61.5776C9.9613 61.0718 9.45089 60.8188 8.81287 60.8188C8.18852 60.8188 7.68494 61.0672 7.30212 61.564C6.91931 62.0607 6.72791 62.7716 6.72791 63.6968ZM20.0238 63.6968C20.0238 64.8224 19.7663 65.7293 19.2513 66.4175C18.7364 67.1056 18.0391 67.4497 17.1595 67.4497C16.2618 67.4497 15.5554 67.1649 15.0404 66.5952V70.1567H13.7758V59.9165H14.931L14.9926 60.7368C15.5075 60.0988 16.223 59.7798 17.139 59.7798C18.0277 59.7798 18.7295 60.1147 19.2445 60.7847C19.764 61.4546 20.0238 62.3866 20.0238 63.5806V63.6968ZM18.7592 63.5532C18.7592 62.7192 18.5814 62.0607 18.226 61.5776C17.8705 61.0946 17.3829 60.853 16.7631 60.853C15.9974 60.853 15.4232 61.1925 15.0404 61.8716V65.4058C15.4187 66.0802 15.9974 66.4175 16.7767 66.4175C17.3829 66.4175 17.8636 66.1782 18.2191 65.6997C18.5791 65.2166 18.7592 64.5011 18.7592 63.5532ZM21.3021 63.5464C21.3021 62.8218 21.4434 62.1701 21.726 61.5913C22.0131 61.0125 22.4095 60.5659 22.9154 60.2515C23.4258 59.937 24.0069 59.7798 24.6586 59.7798C25.6657 59.7798 26.4792 60.1284 27.099 60.8257C27.7233 61.5229 28.0355 62.4504 28.0355 63.6079V63.6968C28.0355 64.4168 27.8965 65.064 27.6185 65.6382C27.3451 66.2078 26.9509 66.6522 26.4359 66.9712C25.9255 67.2902 25.3376 67.4497 24.6722 67.4497C23.6696 67.4497 22.8562 67.1011 22.2318 66.4038C21.612 65.7065 21.3021 64.7837 21.3021 63.6353V63.5464ZM22.5736 63.6968C22.5736 64.5171 22.7627 65.1756 23.141 65.6724C23.5238 66.1691 24.0342 66.4175 24.6722 66.4175C25.3148 66.4175 25.8252 66.1668 26.2035 65.6655C26.5817 65.1597 26.7709 64.4533 26.7709 63.5464C26.7709 62.7352 26.5772 62.0789 26.1898 61.5776C25.807 61.0718 25.2966 60.8188 24.6586 60.8188C24.0342 60.8188 23.5306 61.0672 23.1478 61.564C22.765 62.0607 22.5736 62.7716 22.5736 63.6968Z" fill="#575757"/>
</svg>
