<svg width="16" height="16" viewBox="0 0 16 16" fill="none" xmlns="http://www.w3.org/2000/svg">
<path d="M13 0C14.6562 0 16 1.34375 16 3V13C16 14.6562 14.6562 16 13 16H11.0417V9.80208H13.1146L13.4271 7.38542H11.0417V5.84375C11.0417 5.14583 11.2292 4.67708 12.2396 4.67708L13.5104 4.66667V2.51042C13.2917 2.47917 12.5312 2.41667 11.6562 2.41667C9.8125 2.41667 8.54167 3.54167 8.54167 5.60417V7.38542H6.45833V9.80208H8.54167V16H3C1.34375 16 0 14.6562 0 13V3C0 1.34375 1.34375 0 3 0H13Z" fill="white"/>
</svg>
