<svg width="16" height="16" viewBox="0 0 16 16" fill="none" xmlns="http://www.w3.org/2000/svg">
<path d="M10.6665 8C10.6665 9.46863 9.46863 10.6664 8 10.6664C6.53137 10.6664 5.33355 9.46863 5.33355 8C5.33355 6.53137 6.53137 5.33355 8 5.33355C9.46863 5.33355 10.6665 6.53137 10.6665 8ZM12.1038 8C12.1038 5.72935 10.2706 3.89617 8 3.89617C5.72935 3.89617 3.89617 5.72935 3.89617 8C3.89617 10.2706 5.72935 12.1038 8 12.1038C10.2706 12.1038 12.1038 10.2706 12.1038 8ZM13.2287 12.2705C13.2287 11.7393 12.8017 11.3122 12.2705 11.3122C11.7393 11.3122 11.3122 11.7393 11.3122 12.2705C11.3122 12.8017 11.7393 13.2287 12.2705 13.2287C12.8017 13.2287 13.2287 12.8017 13.2287 12.2705ZM8 14.562C6.83343 14.562 4.33363 14.6557 3.28163 14.2391C2.91708 14.0933 2.64627 13.9162 2.36504 13.635C2.08381 13.3537 1.90675 13.0829 1.76092 12.7184C1.34429 11.6664 1.43803 9.16657 1.43803 8C1.43803 6.83343 1.34429 4.33363 1.76092 3.28163C1.90675 2.91708 2.08381 2.64627 2.36504 2.36504C2.64627 2.08382 2.91708 1.90675 3.28163 1.76093C4.33363 1.34429 6.83343 1.43804 8 1.43804C9.16657 1.43804 11.6664 1.34429 12.7184 1.76093C13.0829 1.90675 13.3537 2.08382 13.635 2.36504C13.9162 2.64627 14.0933 2.91708 14.2391 3.28163C14.6557 4.33363 14.562 6.83343 14.562 8C14.562 9.16657 14.6557 11.6664 14.2391 12.7184C14.0933 13.0829 13.9162 13.3537 13.635 13.635C13.3537 13.9162 13.0829 14.0933 12.7184 14.2391C11.6664 14.6557 9.16657 14.562 8 14.562ZM15.9993 8C15.9993 6.89592 16.0098 5.80226 15.9473 4.69819C15.8848 3.41704 15.5931 2.28172 14.6557 1.34429C13.7183 0.406869 12.583 0.115226 11.3018 0.0527315C10.1977 -0.00976372 9.10408 0.000652313 8 0.000652313C6.89592 0.000652313 5.80226 -0.00976372 4.69819 0.0527315C3.41704 0.115226 2.28172 0.406869 1.34429 1.34429C0.406868 2.28172 0.115225 3.41704 0.0527301 4.69819C-0.00976483 5.80226 0.000650989 6.89592 0.000650989 8C0.000650989 9.10408 -0.00976483 10.1977 0.0527301 11.3018C0.115225 12.583 0.406868 13.7183 1.34429 14.6557C2.28172 15.5931 3.41704 15.8848 4.69819 15.9473C5.80226 16.0098 6.89592 15.9993 8 15.9993C9.10408 15.9993 10.1977 16.0098 11.3018 15.9473C12.583 15.8848 13.7183 15.5931 14.6557 14.6557C15.5931 13.7183 15.8848 12.583 15.9473 11.3018C16.0098 10.1977 15.9993 9.10408 15.9993 8Z" fill="white"/>
</svg>
