<svg width="115" height="88" viewBox="0 0 115 88" fill="none" xmlns="http://www.w3.org/2000/svg">
<path d="M56.4811 0.669922V11.6699H85.4811L56.4811 46.6699C62.4811 43.6699 72.4811 40.6699 78.4811 40.6699L103.481 8.66992V0.669922H56.4811Z" fill="white"/>
<path d="M63.6511 65.3301C56.9011 64.4201 52.7611 61.58 52.6511 57.97C57.3111 52.33 71.3211 45.72 84.7411 43.93C94.1111 42.92 114.251 55.3301 114.251 55.3301C84.1511 48.7801 63.6511 65.3301 63.6511 65.3301Z" fill="white"/>
<path d="M3.95111 80.69H19.6411C36.8711 80.69 47.0411 69.09 47.0411 55.12V4C47.0411 2.93913 46.6197 1.92172 45.8695 1.17157C45.1194 0.421427 44.102 0 43.0411 0C41.9802 0 40.9628 0.421427 40.2127 1.17157C39.4625 1.92172 39.0411 2.93913 39.0411 4V55.12C39.0411 65.18 32.0411 73.49 19.5411 73.35H3.95111C3.44638 73.3127 2.93938 73.3799 2.46181 73.5475C1.98423 73.715 1.54635 73.9793 1.17553 74.3237C0.804712 74.6681 0.508925 75.0854 0.30666 75.5493C0.104395 76.0132 0 76.5139 0 77.02C0 77.5261 0.104395 78.0268 0.30666 78.4907C0.508925 78.9546 0.804712 79.3719 1.17553 79.7163C1.54635 80.0607 1.98423 80.325 2.46181 80.4925C2.93938 80.6601 3.44638 80.7273 3.95111 80.69Z" fill="white"/>
<path d="M27.4611 57.4C27.4559 57.903 27.3516 58.4 27.1543 58.8627C26.957 59.3254 26.6705 59.7446 26.3111 60.0966C25.9517 60.4485 25.5266 60.7262 25.0599 60.9138C24.5932 61.1015 24.0941 61.1953 23.5911 61.19H9.8211C8.80797 61.19 7.83634 61.5925 7.11995 62.3089C6.40356 63.0253 6.0011 63.9969 6.0011 65.01C6.0011 66.0232 6.40356 66.9948 7.11995 67.7112C7.83634 68.4276 8.80797 68.83 9.8211 68.83H23.4211C26.4195 68.908 29.3266 67.7939 31.5048 65.7319C33.683 63.6699 34.9548 60.8282 35.0411 57.83V4.21002C35.028 3.20293 34.6186 2.24156 33.9018 1.53407C33.1849 0.826584 32.2183 0.429938 31.2111 0.430023C30.716 0.423414 30.2245 0.514396 29.7645 0.697774C29.3046 0.881152 28.8853 1.15333 28.5306 1.49878C28.1758 1.84422 27.8926 2.25616 27.6971 2.71106C27.5016 3.16596 27.3976 3.65493 27.3911 4.15002V4.21002L27.4611 57.4Z" fill="white"/>
<path d="M82.3782 82.4299V80.3279H82.3372C82.0022 81.0457 81.5134 81.6199 80.8708 82.0505C80.2351 82.4744 79.5276 82.6863 78.7483 82.6863C77.7502 82.6863 76.9607 82.406 76.3796 81.8455C75.7986 81.2849 75.5081 80.5774 75.5081 79.7229C75.5081 77.8909 76.7214 76.7834 79.1482 76.4006L82.3782 75.9187C82.3782 73.6628 81.5305 72.5349 79.8352 72.5349C78.6799 72.5349 77.5554 72.9998 76.4617 73.9294V72.7913C76.8513 72.4836 77.3777 72.2205 78.0408 72.0017C78.7107 71.783 79.3396 71.6736 79.9275 71.6736C81.0076 71.6736 81.8416 72.0085 82.4294 72.6785C83.0242 73.3484 83.3215 74.3225 83.3215 75.6008V82.4299H82.3782ZM79.4866 77.2004C78.386 77.3577 77.6135 77.614 77.1692 77.9695C76.7249 78.3181 76.5027 78.8889 76.5027 79.6819C76.5027 80.304 76.7078 80.8167 77.1179 81.22C77.5349 81.6233 78.1125 81.825 78.8508 81.825C79.8625 81.825 80.7034 81.4524 81.3733 80.7073C82.0432 79.9553 82.3782 78.988 82.3782 77.8054V76.78L79.4866 77.2004ZM91.4324 72.9143C91.1179 72.6887 90.7488 72.5759 90.325 72.5759C89.4978 72.5759 88.804 73.0032 88.2434 73.8577C87.6829 74.7122 87.4026 75.9255 87.4026 77.4978V82.4299H86.4797V71.9299H87.4026V74.2576H87.4436C87.6829 73.4578 88.0623 72.8357 88.5818 72.3914C89.1013 71.947 89.7029 71.7249 90.3865 71.7249C90.7761 71.7249 91.1248 71.7864 91.4324 71.9094V72.9143ZM98.4871 82.2864C97.9949 82.5188 97.5334 82.635 97.1028 82.635C95.551 82.635 94.7751 81.7053 94.7751 79.8459V72.7913H92.8884V71.9299H94.7751V69.2024C94.9255 69.1477 95.0828 69.093 95.2468 69.0383C95.4109 68.9905 95.5681 68.9392 95.7185 68.8845V71.9299H98.4871V72.7913H95.7185V79.7229C95.7185 80.4475 95.8313 80.9739 96.0569 81.302C96.2893 81.6233 96.679 81.7839 97.2258 81.7839C97.6155 81.7839 98.0359 81.6575 98.4871 81.4045V82.2864ZM100.025 81.9685V80.8303C100.381 81.1379 100.811 81.3806 101.317 81.5583C101.823 81.7361 102.26 81.825 102.63 81.825C104.277 81.825 105.101 81.1516 105.101 79.8049C105.101 79.3401 104.92 78.9436 104.557 78.6155C104.195 78.2874 103.607 77.949 102.794 77.6003C101.789 77.1628 101.081 76.7117 100.671 76.2468C100.268 75.7751 100.066 75.2043 100.066 74.5344C100.066 73.6799 100.391 72.9895 101.04 72.4631C101.697 71.9368 102.503 71.6736 103.46 71.6736C104.363 71.6736 105.135 71.8582 105.778 72.2273V73.2937C104.998 72.7878 104.192 72.5349 103.358 72.5349C102.667 72.5349 102.11 72.7161 101.686 73.0784C101.262 73.4338 101.051 73.8987 101.051 74.4729C101.051 74.9719 101.184 75.3787 101.45 75.6931C101.717 76.0007 102.305 76.3562 103.214 76.7595C104.308 77.2517 105.06 77.7097 105.47 78.1335C105.88 78.5505 106.085 79.1077 106.085 79.8049C106.085 80.6389 105.771 81.3293 105.142 81.8762C104.52 82.4163 103.658 82.6863 102.558 82.6863C101.546 82.6863 100.702 82.447 100.025 81.9685Z" fill="white"/>
</svg>
