<?xml version="1.0" standalone="no"?>
<!DOCTYPE svg PUBLIC "-//W3C//DTD SVG 20010904//EN"
 "http://www.w3.org/TR/2001/REC-SVG-20010904/DTD/svg10.dtd">
<svg version="1.0" xmlns="http://www.w3.org/2000/svg"
 width="912.000000pt" height="912.000000pt" viewBox="0 0 912.000000 912.000000"
 preserveAspectRatio="xMidYMid meet">
<metadata>
Created by potrace 1.11, written by Peter Selinger 2001-2013
</metadata>
<g transform="translate(0.000000,912.000000) scale(0.100000,-0.100000)"
fill="#000000" stroke="none">
<path d="M2465 8070 c-11 -4 -23 -6 -27 -3 -4 2 -31 -6 -60 -18 -59 -25 -158
-119 -158 -150 0 -11 -4 -19 -8 -19 -5 0 -10 -8 -12 -17 -2 -10 -4 -1001 -5
-2203 0 -1202 -4 -2191 -8 -2197 -5 -7 -10 -22 -12 -33 -13 -66 -110 -161
-190 -186 -41 -13 -145 -16 -673 -17 -590 -2 -598 -2 -644 -24 -142 -65 -211
-210 -172 -360 17 -67 48 -113 105 -157 88 -68 72 -66 767 -66 415 0 641 3
667 10 22 6 47 11 55 12 17 0 74 15 105 27 76 31 132 57 146 68 8 7 19 13 23
13 13 0 120 84 167 130 131 130 209 276 255 475 5 20 16 159 15 183 -4 64 -3
103 2 108 3 3 1 19 -3 35 -5 18 -5 29 1 29 6 0 8 4 5 8 -4 7 -6 56 -6 135 0
33 0 112 0 162 0 28 -1 56 -1 63 1 6 1 23 1 37 0 14 0 33 0 43 0 9 -1 44 -1
77 -1 33 -1 66 0 73 1 16 2 51 1 192 -1 30 -1 61 0 68 0 19 0 40 0 67 0 14 0
32 0 40 0 8 0 22 0 30 0 8 0 23 0 33 0 9 0 33 1 52 1 19 1 41 0 48 -1 6 -1 19
-1 27 0 8 0 22 0 30 0 8 0 21 -1 28 0 6 0 30 0 52 1 22 1 48 1 58 0 22 0 62 0
85 0 9 -1 44 -1 77 -1 33 -1 66 0 73 1 16 2 51 1 192 -1 30 -1 61 0 68 0 19 0
40 0 67 0 14 0 32 0 40 0 8 0 22 0 30 0 8 0 23 0 33 0 9 0 33 1 52 1 19 1 41
0 48 -1 6 -1 19 -1 27 0 8 0 22 0 30 0 8 0 21 -1 28 0 6 0 30 0 52 1 22 1 48
1 58 0 22 0 62 0 85 0 9 -1 44 -1 77 -1 33 -1 66 0 73 1 16 2 51 1 192 -1 30
-1 61 0 68 0 19 0 40 0 67 0 14 0 32 0 40 0 8 0 27 1 43 0 15 -1 36 -1 47 -1
11 -1 27 -1 35 1 8 0 42 0 75 -1 33 -1 66 0 73 1 16 2 51 1 192 -1 30 -1 61 0
68 0 19 0 40 0 67 0 14 0 32 0 40 0 8 0 22 0 30 0 8 0 23 0 33 0 9 0 33 1 52
1 19 1 41 0 48 -1 6 -1 19 -1 27 0 8 0 22 0 30 0 8 0 21 -1 28 0 6 0 30 0 52
1 22 1 48 1 58 0 9 0 28 0 42 0 14 0 31 0 38 0 6 0 32 1 57 0 25 0 50 -1 55
-1 6 -3 15 -4 20 -6 36 -21 84 -33 109 -38 73 -139 143 -223 153 -19 2 -39 5
-45 7 -5 2 -19 0 -30 -4z"/>
<path d="M3270 8058 c-61 -39 -123 -118 -138 -178 -11 -45 -15 -163 -12 -352
1 -11 1 -2034 0 -2078 0 -40 0 -467 1 -480 0 -8 -1 -322 -2 -697 -2 -655 -5
-749 -34 -893 -4 -19 -8 -39 -9 -45 -1 -5 -5 -16 -10 -23 -4 -7 -5 -16 -2 -19
3 -3 1 -14 -5 -25 -6 -11 -12 -27 -14 -37 -7 -36 -66 -174 -106 -250 -91 -168
-258 -352 -413 -456 -101 -67 -237 -135 -341 -170 -44 -15 -87 -29 -95 -32 -8
-3 -22 -7 -30 -8 -17 -3 -55 -11 -90 -19 -78 -18 -119 -23 -265 -31 -66 -4
-122 -9 -124 -11 -2 -2 -12 1 -22 7 -11 5 -19 6 -19 2 0 -9 -200 -9 -224 0 -9
4 -16 3 -16 -1 0 -8 -204 -6 -226 2 -8 3 -14 2 -14 -2 0 -8 -201 -7 -224 1 -9
4 -16 3 -16 -1 0 -8 -365 -6 -387 2 -7 3 -13 2 -13 -2 0 -4 -44 -7 -98 -7 -87
-1 -105 -4 -156 -29 -228 -112 -207 -453 34 -534 52 -18 96 -19 815 -16 418 1
783 5 810 8 28 3 66 7 85 9 19 2 53 7 75 11 22 4 54 9 70 11 35 5 40 6 158 34
77 18 211 59 257 78 8 3 20 7 25 8 13 3 150 67 232 108 35 17 63 34 63 39 0 4
5 8 11 8 10 0 135 78 162 100 7 6 34 27 62 48 70 52 241 224 307 307 175 223
318 524 373 790 9 44 19 89 21 100 5 21 10 65 21 175 4 36 7 113 7 172 1 60 5
108 10 108 5 0 5 6 0 13 -5 6 -8 46 -7 87 2 41 3 89 2 105 -5 126 -3 223 4
238 4 9 4 17 0 17 -5 0 -7 44 -5 98 1 53 2 111 1 127 -5 118 -3 223 4 238 4 9
4 17 0 17 -5 0 -7 44 -5 98 1 53 2 111 1 127 -5 118 -3 223 4 238 4 9 4 17 0
17 -5 0 -7 44 -5 98 1 53 2 111 1 127 -5 118 -3 223 4 238 4 9 4 17 0 17 -5 0
-7 44 -5 98 1 53 2 111 1 127 -5 118 -3 223 4 238 4 9 4 17 0 17 -5 0 -7 44
-5 98 1 53 2 111 1 127 -5 132 -3 383 4 398 4 9 4 17 0 17 -5 0 -7 44 -5 98 1
53 2 111 1 127 -5 118 -3 223 4 238 4 9 4 17 0 17 -6 0 -7 83 -3 205 2 37 -9
363 -12 375 -12 45 -49 109 -81 138 -77 70 -82 72 -235 72 -113 0 -131 -3
-162 -22z"/>
<path d="M4533 8052 l-23 -3 0 -434 c0 -337 3 -434 13 -437 6 -2 526 -4 1155
-3 628 0 1142 -1 1142 -3 0 -7 -125 -152 -132 -152 -5 0 -8 -6 -8 -14 0 -8 -3
-16 -7 -18 -5 -1 -39 -41 -78 -88 -38 -47 -72 -87 -75 -90 -4 -3 -36 -42 -73
-88 -37 -46 -84 -104 -106 -130 -118 -139 -172 -205 -230 -277 -35 -44 -69
-84 -75 -90 -6 -5 -38 -44 -71 -85 -33 -41 -67 -82 -75 -91 -8 -9 -22 -25 -30
-35 -15 -18 -107 -129 -129 -156 -6 -7 -19 -23 -29 -34 -29 -36 -85 -104 -122
-148 -19 -23 -53 -64 -75 -91 -39 -47 -140 -168 -160 -192 -5 -6 -20 -25 -33
-41 -12 -16 -38 -46 -56 -66 -19 -20 -33 -36 -30 -36 5 0 -11 -20 -42 -53 -12
-12 -52 -60 -90 -107 -38 -47 -71 -87 -74 -90 -3 -3 -37 -43 -75 -90 -38 -47
-71 -87 -74 -90 -3 -3 -35 -41 -71 -85 -68 -84 -98 -120 -115 -139 -6 -6 -41
-49 -79 -96 -39 -47 -76 -92 -83 -101 -9 -10 11 -4 49 15 87 44 411 176 438
178 3 0 12 4 20 8 18 10 356 117 391 124 13 3 69 17 124 31 55 15 107 28 115
29 8 2 40 8 70 14 30 7 66 14 80 16 14 3 25 5 25 6 0 1 14 3 30 5 17 2 50 7
75 11 65 11 165 21 283 28 26 2 49 5 51 7 1 2 27 36 56 74 29 39 56 72 61 73
5 2 9 10 9 17 0 7 4 15 8 17 4 2 55 64 112 138 57 74 107 137 110 140 3 3 19
23 35 45 17 22 32 42 35 45 4 3 19 23 35 45 17 22 32 42 35 45 3 3 37 46 75
95 38 50 72 92 75 95 3 3 27 34 55 70 27 36 52 67 55 70 3 3 18 23 34 45 16
22 36 47 43 55 8 8 91 114 184 235 94 121 188 241 210 267 21 26 39 51 39 56
0 6 4 12 8 14 4 2 29 30 55 63 27 33 54 67 60 75 7 8 35 44 62 80 27 36 54 70
60 76 5 7 19 24 30 40 11 15 25 32 30 38 9 9 37 45 102 131 5 6 33 42 63 80
30 39 58 75 63 80 4 6 15 20 25 31 9 12 28 36 42 54 14 18 46 60 73 93 32 41
47 69 48 91 3 117 -2 601 -6 604 -5 6 -3686 9 -3722 4z"/>
<path d="M6748 4605 c-2 -2 -23 -6 -48 -10 -67 -9 -94 -14 -210 -37 -138 -26
-123 -23 -222 -47 -48 -11 -98 -23 -110 -25 -170 -37 -614 -186 -795 -267 -23
-11 -44 -19 -46 -19 -3 0 -26 -10 -53 -22 -27 -12 -52 -21 -56 -20 -5 1 -8 -3
-8 -8 0 -6 -6 -10 -14 -10 -7 0 -39 -14 -70 -30 -31 -17 -56 -27 -56 -24 0 4
-6 2 -12 -4 -7 -5 -58 -33 -113 -62 -55 -30 -138 -76 -185 -105 -47 -28 -96
-57 -110 -65 -14 -8 -27 -18 -30 -21 -3 -3 -27 -20 -55 -39 -52 -34 -167 -123
-195 -150 -9 -8 -39 -36 -67 -61 -85 -79 -92 -91 -82 -145 9 -49 48 -141 71
-170 73 -92 178 -173 294 -224 38 -18 76 -35 86 -40 46 -25 281 -83 379 -95
41 -5 50 -2 91 29 63 48 245 166 257 166 5 0 11 4 13 8 8 20 402 222 568 292
172 72 464 179 531 195 9 2 47 12 85 24 38 11 87 24 109 30 22 5 68 17 102 25
34 9 75 18 90 21 15 2 43 9 61 14 18 5 33 10 35 9 1 0 18 3 37 7 19 3 42 7 50
9 8 1 38 6 65 10 74 12 90 14 90 16 0 1 14 3 30 5 30 3 79 9 165 20 25 3 74 8
110 11 36 3 99 8 140 11 99 8 552 8 660 0 194 -15 293 -25 335 -33 21 -5 77
-12 135 -19 19 -3 46 -7 60 -10 14 -3 41 -8 60 -10 19 -3 46 -8 60 -12 14 -3
34 -7 45 -8 11 -2 36 -6 55 -10 33 -6 34 -5 15 9 -11 9 -25 16 -30 16 -6 0
-26 11 -45 23 -36 25 -45 30 -270 155 -179 99 -500 262 -517 262 -7 0 -13 5
-13 10 0 6 -4 10 -9 10 -6 0 -47 18 -93 39 -46 21 -99 46 -118 54 -19 8 -55
24 -80 35 -25 10 -99 41 -165 67 -66 26 -129 51 -140 55 -25 11 -204 70 -225
75 -8 2 -51 13 -95 25 -120 32 -116 31 -200 44 -22 4 -51 9 -65 13 -25 6 -277
13 -282 8z"/>
<path d="M7016 2862 c-3 -5 -5 -49 -5 -98 0 -49 0 -104 0 -121 l-1 -33 -53 0
c-53 0 -54 -1 -55 -30 -1 -32 3 -34 71 -32 34 1 37 -1 38 -26 0 -15 1 -155 1
-312 1 -360 12 -405 108 -468 53 -34 96 -44 203 -47 72 -2 77 -1 77 19 0 37
-13 45 -65 44 -97 -3 -143 10 -185 52 -21 21 -43 56 -49 77 -7 23 -11 161 -11
348 l0 311 143 -1 c78 -1 148 1 155 3 7 2 11 17 10 33 l-2 29 -153 0 -153 0 0
130 0 130 -34 0 c-19 0 -37 -4 -40 -8z"/>
<path d="M5348 2635 c-2 -1 -30 -5 -63 -9 -55 -5 -92 -11 -105 -16 -3 -1 -7
-2 -10 -2 -3 0 -34 -14 -70 -31 -64 -32 -65 -32 -68 -77 -3 -42 -2 -44 15 -28
27 23 142 75 188 84 132 24 252 -1 315 -68 38 -40 57 -83 69 -154 7 -45 5 -54
-8 -58 -9 -3 -72 -5 -141 -5 -69 0 -136 -3 -150 -6 -13 -2 -42 -7 -64 -11 -62
-9 -144 -54 -186 -101 -119 -135 -81 -380 70 -450 99 -46 235 -40 328 14 46
26 104 98 137 171 l21 45 -1 -119 0 -119 30 1 c53 3 56 4 49 16 -10 17 -11 58
-2 64 5 3 6 10 2 16 -8 12 -8 133 0 146 3 5 3 11 1 14 -3 3 -7 95 -9 204 -2
109 -6 209 -10 222 -3 12 -8 30 -10 40 -20 84 -109 167 -211 196 -30 9 -114
24 -117 21z m273 -437 c10 -115 -47 -303 -114 -377 -77 -84 -204 -108 -316
-60 -60 25 -86 55 -102 113 -39 146 17 265 146 311 54 19 88 22 224 24 127 2
161 -1 162 -11z"/>
<path d="M8207 2634 c-1 -1 -34 -4 -73 -7 -39 -3 -80 -9 -90 -15 -11 -5 -23
-10 -29 -11 -5 0 -30 -14 -55 -30 -75 -49 -116 -166 -90 -261 11 -42 94 -135
111 -125 4 3 10 1 14 -5 6 -9 86 -37 135 -46 64 -12 169 -49 205 -73 43 -28
74 -80 69 -115 -1 -12 -5 -35 -7 -53 -12 -92 -104 -155 -230 -156 -66 -1 -111
4 -176 17 -12 3 -47 19 -77 36 -30 16 -55 29 -55 28 -1 -2 -2 -22 -3 -45 -2
-48 2 -51 117 -83 57 -16 94 -19 186 -16 138 5 197 23 258 82 26 25 53 93 59
146 16 157 -76 241 -321 292 -95 20 -162 54 -195 98 -16 21 -21 43 -21 83 0
101 47 156 155 180 89 19 221 8 285 -25 22 -11 45 -20 50 -20 9 0 10 27 2 72
-3 16 -209 65 -224 52z"/>
<path d="M6413 2616 c-23 -7 -57 -23 -76 -35 -39 -24 -117 -105 -117 -121 0
-6 -4 -9 -8 -6 -5 3 -7 39 -6 81 l3 76 -37 -3 -37 -3 -1 -456 0 -455 30 2 c17
1 34 2 37 3 3 0 6 124 6 275 0 245 8 370 23 389 1 1 3 9 5 18 1 9 14 34 29 57
64 101 199 149 334 118 l33 -8 -3 39 -3 38 -85 2 c-49 1 -103 -4 -127 -11z"/>
</g>
</svg>
